<svg width="24" height="24" viewBox="0 0 24 24" fill="none" xmlns="http://www.w3.org/2000/svg">
<path d="M7.05244 0.0722133C8.33237 0.0138139 8.74103 0 12.0001 0C15.2591 0 15.6677 0.0138139 16.9476 0.0722133C18.2249 0.13047 19.0972 0.333343 19.8605 0.629961C20.6496 0.936629 21.3188 1.34695 21.986 2.01406C22.6531 2.68123 23.0634 3.35044 23.3701 4.13954C23.6667 4.90283 23.8696 5.77516 23.9279 7.05241C23.9863 8.33234 24.0001 8.74099 24.0001 12C24.0001 15.259 23.9863 15.6677 23.9279 16.9476C23.8696 18.2248 23.6667 19.0972 23.3701 19.8605C23.0634 20.6496 22.6531 21.3188 21.986 21.9859C21.3188 22.6531 20.6496 23.0634 19.8605 23.37C19.0972 23.6667 18.2249 23.8695 16.9476 23.9278C15.6677 23.9862 15.2591 24 12.0001 24C8.74103 24 8.33237 23.9862 7.05244 23.9278C5.77518 23.8695 4.90285 23.6667 4.13956 23.37C3.35045 23.0634 2.68124 22.6531 2.01407 21.9859C1.34695 21.3188 0.936632 20.6496 0.63001 19.8605C0.333344 19.0972 0.13047 18.2248 0.0722135 16.9476C0.0138139 15.6677 0 15.259 0 12C0 8.74099 0.0138139 8.33234 0.0722135 7.05241C0.13047 5.77516 0.333344 4.90283 0.63001 4.13954C0.936632 3.35044 1.34695 2.68123 2.01407 2.01406C2.68124 1.34695 3.35045 0.936629 4.13956 0.629961C4.90285 0.333343 5.77518 0.13047 7.05244 0.0722133Z" fill="#256EE4"/>
<path d="M6.52008 12.0054C6.52008 8.97566 8.97615 6.51959 12.006 6.51959C15.0357 6.51959 17.4918 8.97566 17.4918 12.0054C17.4918 15.0352 15.0357 17.4913 12.006 17.4913C8.97615 17.4913 6.52008 15.0352 6.52008 12.0054Z" fill="#256EE4" stroke="white" stroke-width="1.35266"/>
<path d="M19.1744 5.59628C19.1744 6.01799 18.8325 6.35993 18.4107 6.35993C17.989 6.35993 17.647 6.018 17.647 5.59628C17.647 5.17449 17.989 4.83258 18.4107 4.83258C18.8325 4.83258 19.1744 5.17451 19.1744 5.59628Z" fill="#256EE4" stroke="white" stroke-width="1.35266"/>
</svg>
