<svg width="25" height="20" viewBox="0 0 25 20" fill="none" xmlns="http://www.w3.org/2000/svg">
<path fill-rule="evenodd" clip-rule="evenodd" d="M24.4649 2.55646C23.5826 2.94843 22.633 3.21241 21.6371 3.3316C22.6538 2.72204 23.4346 1.7573 23.8018 0.607778C22.8514 1.17254 21.7963 1.58132 20.6756 1.8029C19.7772 0.846165 18.4965 0.247803 17.0814 0.247803C14.3624 0.247803 12.1577 2.45246 12.1577 5.17149C12.1577 5.55707 12.2017 5.93304 12.2857 6.29382C8.19316 6.08903 4.56538 4.12836 2.13674 1.14934C1.71276 1.8765 1.47038 2.72205 1.47038 3.6244C1.47038 5.33229 2.33832 6.83939 3.66064 7.72254C2.85269 7.69694 2.09434 7.47535 1.42958 7.10657V7.16817C1.42958 9.55441 3.12787 11.5439 5.37893 11.9975C4.96616 12.1095 4.53099 12.1703 4.08221 12.1703C3.76463 12.1703 3.45585 12.1391 3.15507 12.0815C3.78143 14.0373 5.60052 15.4612 7.75478 15.5012C6.07009 16.8212 3.94702 17.6091 1.63997 17.6091C1.24159 17.6091 0.849619 17.5859 0.464844 17.5395C2.64391 18.9362 5.23174 19.7522 8.01236 19.7522C17.0686 19.7522 22.0211 12.2494 22.0211 5.74345C22.0211 5.52986 22.0171 5.31709 22.0067 5.1067C22.9698 4.41074 23.805 3.5436 24.4649 2.55646Z" fill="#256EE4"/>
</svg>
